HIERARCHY
ROOT Hips
{
	OFFSET 0.000000 0.000000 0.000000
	CHANNELS 6 Xposition Yposition Zposition Yrotation Xrotation Zrotation 
	JOINT LeftHip
	{
		OFFSET 0.084574 -0.000379 0.000042
		CHANNELS 3 Yrotation Xrotation Zrotation
		JOINT LeftKnee
		{
			OFFSET 0.000000 -0.371916 -0.000010
			CHANNELS 3 Yrotation Xrotation Zrotation
			JOINT LeftAnkle
			{
				OFFSET 0.000000 -0.388967 -0.000125
				CHANNELS 3 Yrotation Xrotation Zrotation
				JOINT LeftToe
				{
					OFFSET 0.000000 -0.067153 0.155206
					CHANNELS 3 Yrotation Xrotation Zrotation
					End Site
					{
						OFFSET 0.000000 0.000000 0.000000
					}
				}
			}
		}
	}
	JOINT RightHip
	{
		OFFSET -0.084574 -0.000358 0.000040
		CHANNELS 3 Yrotation Xrotation Zrotation
		JOINT RightKnee
		{
			OFFSET 0.000000 -0.371916 -0.000010
			CHANNELS 3 Yrotation Xrotation Zrotation
			JOINT RightAnkle
			{
				OFFSET 0.000000 -0.388967 -0.000125
				CHANNELS 3 Yrotation Xrotation Zrotation
				JOINT RightToe
				{
					OFFSET 0.000000 -0.067153 0.155206
					CHANNELS 3 Yrotation Xrotation Zrotation
					End Site
					{
						OFFSET 0.000000 0.000000 0.000000
					}
				}
			}
		}
	}
	JOINT Chest
	{
		OFFSET 0.000000 0.103601 -0.011511
		CHANNELS 3 Yrotation Xrotation Zrotation
		JOINT Chest3
		{
			OFFSET 0.000000 0.195526 -0.009344
			CHANNELS 3 Yrotation Xrotation Zrotation
			JOINT Chest4
			{
				OFFSET 0.000000 0.093421 0.000151
				CHANNELS 3 Yrotation Xrotation Zrotation
				JOINT Neck
				{
					OFFSET 0.000000 0.129410 0.000000
					CHANNELS 3 Yrotation Xrotation Zrotation
					JOINT Head
					{
						OFFSET 0.000000 0.086314 -0.000274
						CHANNELS 3 Yrotation Xrotation Zrotation
						End Site
						{
							OFFSET 0.000000 0.000000 0.000000
						}
					}
				}
				JOINT LeftCollar
				{
					OFFSET 0.026654 0.072451 0.000000
					CHANNELS 3 Yrotation Xrotation Zrotation
					JOINT LeftShoulder
					{
						OFFSET 0.121387 0.000000 0.000000
						CHANNELS 3 Yrotation Xrotation Zrotation
						JOINT LeftElbow
						{
							OFFSET 0.229637 0.000000 0.000000
							CHANNELS 3 Yrotation Xrotation Zrotation
							JOINT LeftWrist
							{
								OFFSET 0.233804 0.000000 0.000162
								CHANNELS 3 Yrotation Xrotation Zrotation
								End Site
								{
									OFFSET 0.000000 0.000000 0.000000
								}
							}
						}
					}
				}
				JOINT RightCollar
				{
					OFFSET -0.026654 0.072451 0.000000
					CHANNELS 3 Yrotation Xrotation Zrotation
					JOINT RightShoulder
					{
						OFFSET -0.121387 0.000000 0.000000
						CHANNELS 3 Yrotation Xrotation Zrotation
						JOINT RightElbow
						{
							OFFSET -0.229637 0.000000 0.000000
							CHANNELS 3 Yrotation Xrotation Zrotation
							JOINT RightWrist
							{
								OFFSET -0.233804 0.000000 0.000162
								CHANNELS 3 Yrotation Xrotation Zrotation
								End Site
								{
									OFFSET 0.000000 0.000000 0.000000
								}
							}
						}
					}
				}
			}
		}
	}
}
MOTION
Frames: 8
Frame Time: 0.016667
0.000000 0.842783 0.000000 0.000000 6.340192 0.000000 0.000000 -3.587706 0.000000 0.000000 1.905768 0.000000 0.000000 -4.658254 0.000000 0.000000 -0.000000 0.000000 0.000000 -3.591006 0.000000 0.000000 1.872585 0.000000 0.000000 -4.621771 0.000000 0.000000 -0.000000 0.000000 0.000000 -6.340192 0.000000 0.000000 -5.832252 0.000000 0.000000 5.832252 0.000000 0.000000 12.610213 0.000000 0.000000 -9.243752 0.000000 0.000000 -0.000000 0.000000 0.000000 -0.000000 0.000000 -2.309063 0.000000 0.000000 2.309063 -0.000000 0.000000 0.000000 -0.000000 0.000000 0.000000 -0.000000 0.000000 2.309063 -0.000000 0.000000 -2.309063 0.000000 0.000000 
2.727267 0.835951 4.555567 -162.297426 -4.008775 0.269518 -0.916414 6.912150 5.060848 -0.401574 5.860007 -0.297451 -2.939130 -11.759750 -3.144519 0.000000 -0.000000 0.000000 -1.277488 6.795430 -3.501500 0.419845 7.859165 -0.000268 -6.707355 -11.861443 2.350081 0.000000 -0.000000 0.000000 1.477639 1.650359 -0.047819 1.318034 -4.365320 -0.044724 0.495702 6.382010 0.029705 2.614140 15.267151 -0.355590 5.018669 -7.617047 -1.637042 -3.453953 3.857903 -8.718479 8.569369 -25.784557 -66.488730 -46.896101 -11.038296 5.639995 -14.026130 -7.149263 9.514114 2.867082 -7.286070 9.320975 -22.668674 -24.261071 53.229968 41.798079 -2.986075 11.154787 -7.480066 -1.822428 -10.234980 
2.727479 0.836443 4.555887 -162.199603 -4.019208 0.253491 -0.905975 6.847930 5.103385 -0.464063 5.912370 -0.327849 -2.995194 -11.741779 -3.115312 0.000000 -0.000000 0.000000 -1.267168 6.756004 -3.467697 0.386836 7.918907 -0.003713 -6.773077 -11.839757 2.359507 0.000000 -0.000000 0.000000 1.447722 1.505302 -0.060153 1.292551 -4.494273 -0.055503 0.485656 6.333636 0.025076 2.609377 15.494749 -0.355294 5.001622 -7.194832 -1.624696 -3.348495 3.676094 -8.538243 8.437748 -26.345388 -65.546991 -51.315680 -12.104231 5.815731 -14.333792 -7.872447 10.565170 2.777575 -7.859572 9.216003 -22.527096 -24.926428 51.747213 45.000780 -4.099606 11.302248 -7.463256 -2.325801 -10.936357 
2.727679 0.836825 4.556124 -162.121704 -4.022618 0.239053 -0.898942 6.791113 5.141895 -0.513780 5.956730 -0.353239 -3.038516 -11.729287 -3.091039 0.000000 -0.000000 0.000000 -1.254616 6.719801 -3.436165 0.356094 7.968835 -0.005969 -6.824502 -11.824009 2.365516 0.000000 -0.000000 0.000000 1.420591 1.357659 -0.074713 1.269745 -4.625526 -0.068280 0.476542 6.284394 0.019783 2.605477 15.717153 -0.355336 4.986636 -6.782202 -1.613626 -3.241924 3.487997 -8.354646 8.219668 -26.965348 -64.528713 -55.690849 -13.191736 6.068856 -14.666623 -8.525161 11.547911 2.674264 -8.503096 9.143153 -22.187325 -25.430072 50.170530 48.234941 -5.291632 11.224350 -7.389951 -2.822579 -11.618863 
2.727864 0.837035 4.556244 -162.070133 -4.016029 0.227353 -0.896520 6.745511 5.174647 -0.545149 5.987536 -0.370508 -3.065612 -11.724092 -3.074717 0.000000 -0.000000 0.000000 -1.236650 6.689968 -3.407129 0.324981 8.003077 -0.007234 -6.856643 -11.816696 2.366830 0.000000 -0.000000 0.000000 1.397630 1.203721 -0.093084 1.250995 -4.762379 -0.084467 0.468828 6.233042 0.013352 2.601842 15.934608 -0.356268 4.972745 -6.378703 -1.604607 -3.137747 3.290838 -8.167486 7.856253 -27.655981 -63.364539 -60.016157 -14.340283 6.390092 -15.022755 -9.146404 12.380518 2.532006 -9.297922 9.130560 -21.519825 -25.621987 48.400427 51.524871 -6.578689 10.838479 -7.252828 -3.335045 -12.252878 
2.728037 0.837135 4.556281 -162.038492 -4.002439 0.217268 -0.897442 6.707376 5.203477 -0.563738 6.010332 -0.382748 -3.079975 -11.724390 -3.063314 0.000000 -0.000000 0.000000 -1.216421 6.663395 -3.380318 0.296135 8.027501 -0.007352 -6.874491 -11.815323 2.364727 0.000000 -0.000000 0.000000 1.377481 1.047184 -0.113531 1.234933 -4.901542 -0.102520 0.462049 6.180818 0.006313 2.599060 16.146867 -0.357698 4.960899 -5.984790 -1.597132 -3.032677 3.087486 -7.976848 7.394106 -28.398854 -62.115999 -64.312235 -15.487531 6.821042 -15.395742 -9.729960 13.140517 2.373093 -10.162514 9.152028 -20.667144 -25.631384 46.555880 54.870828 -7.863565 10.187448 -7.062782 -3.851622 -12.876271 
2.728191 0.837203 4.556260 -162.027512 -3.983829 0.207002 -0.901305 6.672887 5.229880 -0.573489 6.033756 -0.394234 -3.079344 -11.730250 -3.052668 0.000000 -0.000000 0.000000 -1.201150 6.634017 -3.357160 0.279741 8.049899 -0.004657 -6.878724 -11.818339 2.359618 0.000000 -0.000000 0.000000 1.358804 0.896540 -0.133036 1.220087 -5.035468 -0.119755 0.455752 6.130562 -0.000394 2.599464 16.347993 -0.358666 4.955287 -5.611441 -1.590488 -2.913721 2.880555 -7.779799 6.924818 -29.211218 -60.910732 -68.554061 -16.454263 7.338225 -15.760974 -10.243548 13.924969 2.255071 -10.922934 9.157359 -19.884204 -25.728319 44.879888 58.295505 -8.952151 9.359206 -6.793234 -4.372824 -13.536563 
2.728327 0.837258 4.556193 -162.042575 -3.959807 0.196132 -0.906053 6.640003 5.254674 -0.576542 6.061211 -0.407403 -3.058998 -11.742447 -3.040560 0.000000 -0.000000 0.000000 -1.195440 6.597803 -3.339662 0.284841 8.072330 0.003434 -6.867305 -11.825037 2.350222 0.000000 -0.000000 0.000000 1.343033 0.755718 -0.151096 1.207688 -5.160658 -0.135723 0.450420 6.083583 -0.006562 2.603765 16.532211 -0.357922 4.956929 -5.269400 -1.582803 -2.777699 2.660789 -7.578622 6.477284 -30.106317 -59.789917 -72.724228 -17.162171 7.886021 -16.095480 -10.673446 14.759971 2.222987 -11.484108 9.125033 -19.271428 -26.035113 43.470220 61.835554 -9.777167 8.396558 -6.450934 -4.903748 -14.262515 
